<svg width="940" height="222" viewBox="0 0 940 222" fill="none" xmlns="http://www.w3.org/2000/svg">
<path d="M15.6785 50.2512H144.322V213.106C144.322 217.524 140.74 221.106 136.322 221.106H23.6785C19.2602 221.106 15.6785 217.524 15.6785 213.106V50.2512Z" fill="black"/>
<path d="M0 8C0 3.58172 3.58172 0 8 0H152C156.418 0 160 3.58172 160 8V46.2714C160 50.6896 156.418 54.2714 152 54.2714H8C3.58172 54.2714 0 50.6896 0 46.2714V8Z" fill="black"/>
<path d="M20.1006 54.2715H139.9V212.684C139.9 214.893 138.109 216.684 135.9 216.684H24.1006C21.8914 216.684 20.1006 214.893 20.1006 212.684V54.2715Z" fill="#FF5733"/>
<path d="M4.42212 8.02002C4.42212 5.81089 6.21298 4.02002 8.42212 4.02002H151.98C154.189 4.02002 155.98 5.81088 155.98 8.02002V45.8492C155.98 48.0583 154.189 49.8492 151.98 49.8492H8.42212C6.21298 49.8492 4.42212 48.0583 4.42212 45.8492V8.02002Z" fill="#FF5733"/>
<path d="M4.42212 8.02002C4.42212 5.81089 6.21298 4.02002 8.42212 4.02002H151.98C154.189 4.02002 155.98 5.81088 155.98 8.02002V45.8492C155.98 48.0583 154.189 49.8492 151.98 49.8492H8.42212C6.21298 49.8492 4.42212 48.0583 4.42212 45.8492V8.02002Z" fill="url(#paint0_linear_103_70)"/>
<path d="M20.1006 53.8694H139.9V212.683C139.9 214.893 138.109 216.683 135.9 216.683H24.1006C21.8914 216.683 20.1006 214.893 20.1006 212.683V53.8694Z" fill="url(#paint1_linear_103_70)"/>
<path d="M43.417 57.0854H62.7135V215.685H43.417V57.0854Z" fill="white"/>
<path d="M120.603 54.2715H139.9V212.684C139.9 214.893 138.109 216.684 135.9 216.684H120.603V54.2715Z" fill="white" fill-opacity="0.25"/>
<path d="M38.593 57.0854H43.4171V215.685H38.593V57.0854Z" fill="white" fill-opacity="0.5"/>
<path d="M33.7688 4.02002H53.4673V49.02H33.7688V4.02002Z" fill="white"/>
<path d="M136.281 4.02002H151.98C154.189 4.02002 155.98 5.81088 155.98 8.02002V45.8492C155.98 48.0583 154.189 49.8492 151.98 49.8492H136.281V4.02002Z" fill="white" fill-opacity="0.25"/>
<path d="M28.9446 4.02002H33.7687V49.02H28.9446V4.02002Z" fill="white" fill-opacity="0.5"/>
<path d="M284.1 168.1C270.683 168.1 260.533 163.2 253.65 153.4C246.767 143.6 243.325 129.658 243.325 111.575C243.325 93.9583 246.767 80.1917 253.65 70.275C260.533 60.3583 270.683 55.4 284.1 55.4C297.283 55.4 307.317 60.3583 314.2 70.275C321.2 80.1917 324.7 93.9583 324.7 111.575C324.7 129.658 321.2 143.6 314.2 153.4C307.317 163.2 297.283 168.1 284.1 168.1ZM284.1 152C290.633 152 295.767 148.675 299.5 142.025C303.233 135.258 305.1 125.05 305.1 111.4C305.1 98.6833 303.233 88.8833 299.5 82C295.767 75 290.633 71.5 284.1 71.5C277.333 71.5 272.083 75 268.35 82C264.733 88.8833 262.925 98.6833 262.925 111.4C262.925 125.05 264.733 135.258 268.35 142.025C272.083 148.675 277.333 152 284.1 152ZM335.9 195.225L335.725 84.45H355.325V95.825C357.892 91.275 361.158 87.95 365.125 85.85C369.092 83.75 373.467 82.7 378.25 82.7C384.2 82.7 389.567 84.3333 394.35 87.6C399.25 90.75 403.158 95.5333 406.075 101.95C408.992 108.25 410.45 116.125 410.45 125.575C410.45 135.142 408.933 143.075 405.9 149.375C402.867 155.675 398.842 160.4 393.825 163.55C388.925 166.583 383.617 168.1 377.9 168.1C373.583 168.1 369.442 167.342 365.475 165.825C361.508 164.308 358.358 162.033 356.025 159V195.225H335.9ZM372.475 152.7C375.858 152.7 378.95 151.825 381.75 150.075C384.55 148.325 386.767 145.408 388.4 141.325C390.033 137.242 390.85 131.642 390.85 124.525C390.85 116.475 389.275 110.117 386.125 105.45C383.092 100.783 378.892 98.3917 373.525 98.275C367.925 98.1583 363.55 100.375 360.4 104.925C357.367 109.358 355.85 116.65 355.85 126.8C356.083 144.067 361.625 152.7 372.475 152.7ZM462.425 167.925C454.608 167.925 447.608 166.292 441.425 163.025C435.358 159.758 430.575 154.975 427.075 148.675C423.575 142.375 421.825 134.792 421.825 125.925C421.825 116.825 423.517 109.067 426.9 102.65C430.4 96.2333 435.008 91.3333 440.725 87.95C446.558 84.45 453.033 82.7 460.15 82.7C466.45 82.7 472.225 84.1583 477.475 87.075C482.842 89.9917 487.1 94.425 490.25 100.375C493.517 106.208 495.15 113.5 495.15 122.25C495.15 123.417 495.092 124.817 494.975 126.45C494.975 128.083 494.917 129.483 494.8 130.65H440.9C441.133 135.783 442.358 139.983 444.575 143.25C446.792 146.4 449.533 148.733 452.8 150.25C456.067 151.767 459.567 152.525 463.3 152.525C466.917 152.525 470.358 151.942 473.625 150.775C476.892 149.608 479.925 147.625 482.725 144.825L492.875 154.625C488.908 159.292 484.358 162.675 479.225 164.775C474.092 166.875 468.492 167.925 462.425 167.925ZM441.25 115.775H475.9C475.9 110.058 474.442 105.683 471.525 102.65C468.608 99.6167 464.525 98.1 459.275 98.1C454.725 98.1 450.758 99.5583 447.375 102.475C443.992 105.275 441.95 109.708 441.25 115.775ZM512.125 166V84.625H531.9V95.825C534.817 91.8583 538.2 88.7083 542.05 86.375C545.9 83.925 550.333 82.7 555.35 82.7C560.017 82.7 564.333 83.8667 568.3 86.2C572.383 88.4167 575.65 92.0333 578.1 97.05C580.55 102.067 581.775 108.658 581.775 116.825V166H562V117.175C562 110.525 560.95 105.683 558.85 102.65C556.75 99.5 553.833 97.925 550.1 97.925C547.183 97.925 544.325 98.7417 541.525 100.375C538.725 101.892 536.392 104.108 534.525 107.025C532.775 109.942 531.9 113.442 531.9 117.525V166H512.125ZM598.4 166V56.975H635.5C643.9 56.975 650.842 58.4333 656.325 61.35C661.808 64.2667 665.833 68.175 668.4 73.075C671.083 77.8583 672.425 83.1667 672.425 89C672.425 94.7167 671.142 99.9667 668.575 104.75C666.008 109.417 662.042 113.208 656.675 116.125C651.308 118.925 644.542 120.325 636.375 120.325H618.525V166H598.4ZM618.525 103.875H634.975C640.575 103.875 644.833 102.475 647.75 99.675C650.667 96.875 652.125 93.3167 652.125 89C652.125 84.6833 650.667 81.125 647.75 78.325C644.833 75.525 640.633 74.125 635.15 74.125H618.525V103.875ZM692.2 166V150.425H712.15V100.2H693.25V84.625H732.1V150.425H750.3V166H692.2ZM721.25 71.15C717.75 71.15 714.775 69.9833 712.325 67.65C709.992 65.3167 708.825 62.5167 708.825 59.25C708.825 55.8667 709.992 53.0667 712.325 50.85C714.658 48.5167 717.633 47.35 721.25 47.35C724.517 47.35 727.375 48.5167 729.825 50.85C732.392 53.1833 733.675 55.9833 733.675 59.25C733.675 62.5167 732.392 65.3167 729.825 67.65C727.375 69.9833 724.517 71.15 721.25 71.15ZM773.4 195.225L773.225 84.45H792.825V95.825C795.392 91.275 798.658 87.95 802.625 85.85C806.592 83.75 810.967 82.7 815.75 82.7C821.7 82.7 827.067 84.3333 831.85 87.6C836.75 90.75 840.658 95.5333 843.575 101.95C846.492 108.25 847.95 116.125 847.95 125.575C847.95 135.142 846.433 143.075 843.4 149.375C840.367 155.675 836.342 160.4 831.325 163.55C826.425 166.583 821.117 168.1 815.4 168.1C811.083 168.1 806.942 167.342 802.975 165.825C799.008 164.308 795.858 162.033 793.525 159V195.225H773.4ZM809.975 152.7C813.358 152.7 816.45 151.825 819.25 150.075C822.05 148.325 824.267 145.408 825.9 141.325C827.533 137.242 828.35 131.642 828.35 124.525C828.35 116.475 826.775 110.117 823.625 105.45C820.592 100.783 816.392 98.3917 811.025 98.275C805.425 98.1583 801.05 100.375 797.9 104.925C794.867 109.358 793.35 116.65 793.35 126.8C793.583 144.067 799.125 152.7 809.975 152.7ZM899.925 167.925C892.108 167.925 885.108 166.292 878.925 163.025C872.858 159.758 868.075 154.975 864.575 148.675C861.075 142.375 859.325 134.792 859.325 125.925C859.325 116.825 861.017 109.067 864.4 102.65C867.9 96.2333 872.508 91.3333 878.225 87.95C884.058 84.45 890.533 82.7 897.65 82.7C903.95 82.7 909.725 84.1583 914.975 87.075C920.342 89.9917 924.6 94.425 927.75 100.375C931.017 106.208 932.65 113.5 932.65 122.25C932.65 123.417 932.592 124.817 932.475 126.45C932.475 128.083 932.417 129.483 932.3 130.65H878.4C878.633 135.783 879.858 139.983 882.075 143.25C884.292 146.4 887.033 148.733 890.3 150.25C893.567 151.767 897.067 152.525 900.8 152.525C904.417 152.525 907.858 151.942 911.125 150.775C914.392 149.608 917.425 147.625 920.225 144.825L930.375 154.625C926.408 159.292 921.858 162.675 916.725 164.775C911.592 166.875 905.992 167.925 899.925 167.925ZM878.75 115.775H913.4C913.4 110.058 911.942 105.683 909.025 102.65C906.108 99.6167 902.025 98.1 896.775 98.1C892.225 98.1 888.258 99.5583 884.875 102.475C881.492 105.275 879.45 109.708 878.75 115.775Z" fill="black"/>
<defs>
<linearGradient id="paint0_linear_103_70" x1="134.673" y1="26.9346" x2="55.0754" y2="26.9346" gradientUnits="userSpaceOnUse">
<stop stop-color="#D62600"/>
<stop offset="1" stop-color="#FF5733" stop-opacity="0"/>
</linearGradient>
<linearGradient id="paint1_linear_103_70" x1="123.058" y1="135.276" x2="60.1395" y2="135.276" gradientUnits="userSpaceOnUse">
<stop stop-color="#D62600"/>
<stop offset="1" stop-color="#FF5733" stop-opacity="0"/>
</linearGradient>
</defs>
</svg>
