<?xml version="1.0" standalone="no"?>
<!DOCTYPE svg PUBLIC "-//W3C//DTD SVG 20010904//EN"
 "http://www.w3.org/TR/2001/REC-SVG-20010904/DTD/svg10.dtd">
<svg version="1.0" xmlns="http://www.w3.org/2000/svg"
 width="512.000000pt" height="512.000000pt" viewBox="0 0 512.000000 512.000000"
 preserveAspectRatio="xMidYMid meet">
<metadata>
Created by potrace 1.14, written by Peter Selinger 2001-2017
</metadata>
<g transform="translate(0.000000,512.000000) scale(0.100000,-0.100000)"
fill="#000000" stroke="none">
<path d="M7 5113 c-4 -3 -7 -352 -7 -774 0 -579 3 -770 12 -775 6 -4 226 -8
487 -8 l476 -1 1 -1760 c1 -968 2 -1768 3 -1778 1 -16 81 -17 1584 -15 l1582
3 0 1775 0 1775 460 2 c253 1 472 2 488 2 l27 1 -2 778 -3 777 -2551 3 c-1403
1 -2554 -1 -2557 -5z"/>
</g>
</svg>
