<?xml version="1.0" encoding="UTF-8" standalone="no"?>
<!-- Created with Inkscape (http://www.inkscape.org/) -->

<svg
   version="1.1"
   id="svg4893"
   xml:space="preserve"
   width="682.66669"
   height="682.66669"
   viewBox="0 0 682.66669 682.66669"
   xmlns="http://www.w3.org/2000/svg"
   xmlns:svg="http://www.w3.org/2000/svg"><defs
     id="defs4897"><clipPath
       clipPathUnits="userSpaceOnUse"
       id="clipPath4907"><path
         d="M 0,512 H 512 V 0 H 0 Z"
         id="path4905" /></clipPath></defs><g
     id="g4899"
     transform="matrix(1.3333333,0,0,-1.3333333,0,682.66667)"><g
       id="g4901"><g
         id="g4903"
         clip-path="url(#clipPath4907)"><g
           id="g4909"
           transform="translate(428.7021,125.8687)"><path
             d="M 0,0 -111.36,182.046 V 362.762 H -234.044 V 182.046 L -345.405,0 c -31.704,-51.829 5.594,-118.369 66.351,-118.369 H -66.351 C -5.594,-118.369 31.705,-51.829 0,0"
             style="fill:#d3e1f5;fill-opacity:1;fill-rule:nonzero;stroke:none"
             id="path4911" /></g><g
           id="g4913"
           transform="translate(428.7002,125.8701)"><path
             d="m 0,0 -111.36,182.04 0.002,180.72 h -122.684 v -47.373 h 49.045 c 14.557,0 26.356,-11.8 26.356,-26.356 V 182.04 L -47.28,0 c 31.71,-51.83 -5.59,-118.37 -66.35,-118.37 h 47.279 C -5.591,-118.37 31.71,-51.83 0,0"
             style="fill:#b2caec;fill-opacity:1;fill-rule:nonzero;stroke:none"
             id="path4915" /></g><g
           id="g4917"
           transform="translate(364.9482,230.0898)"><path
             d="m 0,0 h -217.897 l -63.754,-104.221 c -31.704,-51.829 5.594,-118.369 66.351,-118.369 H -2.597 c 60.757,0 98.056,66.54 66.351,118.369 z"
             style="fill:#26a5fe;fill-opacity:1;fill-rule:nonzero;stroke:none"
             id="path4919" /></g><g
           id="g4921"
           transform="translate(364.9453,230.0898)"><path
             d="m 0,0 h -47.28 l 63.755,-104.22 c 31.71,-51.83 -5.59,-118.37 -66.35,-118.37 h 47.279 c 60.76,0 98.061,66.54 66.351,118.37 z"
             style="fill:#0694fc;fill-opacity:1;fill-rule:nonzero;stroke:none"
             id="path4923" /></g><g
           id="g4925"
           transform="translate(384.7168,197.7739)"><path
             d="M 0,0 -67.375,110.141 V 290.856 H -190.059 V 203.134"
             style="fill:none;stroke:#000000;stroke-width:15;stroke-linecap:round;stroke-linejoin:round;stroke-miterlimit:10;stroke-dasharray:none;stroke-opacity:1"
             id="path4927" /></g><g
           id="g4929"
           transform="translate(194.6582,367.0835)"><path
             d="m 0,0 v -59.169 l -111.361,-182.046 c -31.704,-51.828 5.594,-118.368 66.351,-118.368 h 212.703 c 60.757,0 98.056,66.54 66.351,118.368 l -26.351,43.077"
             style="fill:none;stroke:#000000;stroke-width:15;stroke-linecap:round;stroke-linejoin:round;stroke-miterlimit:10;stroke-dasharray:none;stroke-opacity:1"
             id="path4931" /></g><g
           id="g4933"
           transform="translate(323.6084,472.2432)"><path
             d="m 0,0 h -135.217 c -8.908,0 -16.128,7.221 -16.128,16.128 0,8.908 7.22,16.129 16.128,16.129 L 0,32.257 c 8.907,0 16.128,-7.221 16.128,-16.129 C 16.128,7.221 8.907,0 0,0"
             style="fill:#eaf6ff;fill-opacity:1;fill-rule:nonzero;stroke:none"
             id="path4935" /></g><g
           id="g4937"
           transform="translate(339.7402,488.3701)"><path
             d="m 0,0 c 0,-4.45 -1.801,-8.49 -4.721,-11.41 -2.92,-2.92 -6.96,-4.72 -11.41,-4.72 H -50.32 c 4.46,0 8.49,1.8 11.41,4.72 2.91,2.92 4.72,6.96 4.72,11.41 0,8.91 -7.22,16.13 -16.13,16.13 h 34.189 C -7.221,16.13 0,8.91 0,0"
             style="fill:#d3e1f5;fill-opacity:1;fill-rule:nonzero;stroke:none"
             id="path4939" /></g><g
           id="g4941"
           transform="translate(252.2305,472.2432)"><path
             d="m 0,0 h 71.378 c 8.907,0 16.128,7.221 16.128,16.128 0,8.908 -7.221,16.129 -16.128,16.129 H -63.839 c -8.908,0 -16.128,-7.221 -16.128,-16.129 C -79.967,7.221 -72.747,0 -63.839,0 h 30.014"
             style="fill:none;stroke:#000000;stroke-width:15;stroke-linecap:round;stroke-linejoin:round;stroke-miterlimit:10;stroke-dasharray:none;stroke-opacity:1"
             id="path4943" /></g><g
           id="g4945"
           transform="translate(274.6074,330.3657)"><path
             d="M 0,0 H -43.644"
             style="fill:none;stroke:#000000;stroke-width:15;stroke-linecap:round;stroke-linejoin:round;stroke-miterlimit:10;stroke-dasharray:none;stroke-opacity:1"
             id="path4947" /></g><g
           id="g4949"
           transform="translate(257.9736,296.9404)"><path
             d="M 0,0 H -27.01"
             style="fill:none;stroke:#000000;stroke-width:15;stroke-linecap:round;stroke-linejoin:round;stroke-miterlimit:10;stroke-dasharray:none;stroke-opacity:1"
             id="path4951" /></g><g
           id="g4953"
           transform="translate(257.9736,263.5151)"><path
             d="M 0,0 H -27.01"
             style="fill:none;stroke:#000000;stroke-width:15;stroke-linecap:round;stroke-linejoin:round;stroke-miterlimit:10;stroke-dasharray:none;stroke-opacity:1"
             id="path4955" /></g><g
           id="g4957"
           transform="translate(257.9736,230.0898)"><path
             d="M 0,0 H -27.01"
             style="fill:none;stroke:#000000;stroke-width:15;stroke-linecap:round;stroke-linejoin:round;stroke-miterlimit:10;stroke-dasharray:none;stroke-opacity:1"
             id="path4959" /></g><g
           id="g4961"
           transform="translate(274.6074,196.6646)"><path
             d="M 0,0 H -43.644"
             style="fill:none;stroke:#000000;stroke-width:15;stroke-linecap:round;stroke-linejoin:round;stroke-miterlimit:10;stroke-dasharray:none;stroke-opacity:1"
             id="path4963" /></g><g
           id="g4965"
           transform="translate(274.6074,62.9634)"><path
             d="M 0,0 H -43.644"
             style="fill:none;stroke:#000000;stroke-width:15;stroke-linecap:round;stroke-linejoin:round;stroke-miterlimit:10;stroke-dasharray:none;stroke-opacity:1"
             id="path4967" /></g><g
           id="g4969"
           transform="translate(257.9736,163.2393)"><path
             d="M 0,0 H -27.01"
             style="fill:none;stroke:#000000;stroke-width:15;stroke-linecap:round;stroke-linejoin:round;stroke-miterlimit:10;stroke-dasharray:none;stroke-opacity:1"
             id="path4971" /></g><g
           id="g4973"
           transform="translate(257.9736,129.814)"><path
             d="M 0,0 H -27.01"
             style="fill:none;stroke:#000000;stroke-width:15;stroke-linecap:round;stroke-linejoin:round;stroke-miterlimit:10;stroke-dasharray:none;stroke-opacity:1"
             id="path4975" /></g><g
           id="g4977"
           transform="translate(257.9736,96.3887)"><path
             d="M 0,0 H -27.01"
             style="fill:none;stroke:#000000;stroke-width:15;stroke-linecap:round;stroke-linejoin:round;stroke-miterlimit:10;stroke-dasharray:none;stroke-opacity:1"
             id="path4979" /></g><g
           id="g4981"
           transform="translate(364.9482,230.0898)"><path
             d="M 0,0 H -217.897"
             style="fill:none;stroke:#000000;stroke-width:15;stroke-linecap:round;stroke-linejoin:round;stroke-miterlimit:10;stroke-dasharray:none;stroke-opacity:1"
             id="path4983" /></g></g></g></g></svg>
