<svg id="Capa_1" enable-background="new 0 0 512 512" height="512" viewBox="0 0 512 512" width="512" xmlns="http://www.w3.org/2000/svg"><g><path d="m374.533 292.994h-237.066l53.828-87.996c.99-1.618 1.514-3.479 1.514-5.376v-183.273h126.383v183.273c0 1.897.524 3.757 1.514 5.376z" fill="#d3e1f4"/><path d="m374.533 292.994h-48.707l-55.341-90.471v-110.219c0-14.999-12.156-27.156-27.156-27.156h-50.52v-48.8h126.383v183.269c0 1.906.525 3.76 1.514 5.378z" fill="#b3cbea"/><path d="m368.237 282.692h-224.474l-65.678 107.367c-32.661 53.393 5.763 121.941 68.353 121.941h219.123c62.59 0 101.015-68.548 68.353-121.941z" fill="#31a7fb"/><path d="m368.233 282.692h-48.707l65.679 107.365c32.667 53.395-5.758 121.943-68.352 121.943h48.707c62.594 0 101.02-68.548 68.353-121.943z" fill="#1c96f9"/><path d="m325.649 33.23h-139.298c-9.176 0-16.615-7.439-16.615-16.615 0-9.176 7.438-16.615 16.615-16.615h139.298c9.176 0 16.615 7.439 16.615 16.615 0 9.176-7.439 16.615-16.615 16.615z" fill="#eaf6ff"/><path d="m342.267 16.617c0 4.584-1.854 8.746-4.862 11.754s-7.17 4.862-11.754 4.862h-35.222c4.595 0 8.746-1.854 11.755-4.862 2.998-3.008 4.862-7.17 4.862-11.754-.001-9.179-7.438-16.617-16.618-16.617h35.222c9.179 0 16.617 7.438 16.617 16.617z" fill="#d3e1f4"/><g><g><path d="m275.169 179.905h-44.961c-4.267 0-7.726-3.459-7.726-7.726s3.459-7.726 7.726-7.726h44.961c4.268 0 7.726 3.459 7.726 7.726s-3.458 7.726-7.726 7.726z" fill="#84aee1"/></g><g><path d="m258.033 214.339h-27.825c-4.267 0-7.726-3.459-7.726-7.726s3.459-7.726 7.726-7.726h27.825c4.268 0 7.726 3.459 7.726 7.726.001 4.267-3.458 7.726-7.726 7.726z" fill="#84aee1"/></g><g><path d="m258.033 248.773h-27.825c-4.267 0-7.726-3.459-7.726-7.726s3.459-7.726 7.726-7.726h27.825c4.268 0 7.726 3.459 7.726 7.726s-3.458 7.726-7.726 7.726z" fill="#84aee1"/></g><g><path d="m258.033 283.207h-27.825c-4.267 0-7.726-3.459-7.726-7.726s3.459-7.726 7.726-7.726h27.825c4.268 0 7.726 3.459 7.726 7.726.001 4.267-3.458 7.726-7.726 7.726z" fill="#84aee1"/></g><g><path d="m275.169 317.641h-44.961c-4.267 0-7.726-3.459-7.726-7.726s3.459-7.726 7.726-7.726h44.961c4.268 0 7.726 3.459 7.726 7.726s-3.458 7.726-7.726 7.726z" fill="#1c96f9"/></g><g><path d="m275.169 455.378h-44.961c-4.267 0-7.726-3.459-7.726-7.726s3.459-7.726 7.726-7.726h44.961c4.268 0 7.726 3.459 7.726 7.726s-3.458 7.726-7.726 7.726z" fill="#1c96f9"/></g><g><path d="m258.033 352.075h-27.825c-4.267 0-7.726-3.459-7.726-7.726s3.459-7.726 7.726-7.726h27.825c4.268 0 7.726 3.459 7.726 7.726.001 4.267-3.458 7.726-7.726 7.726z" fill="#1c96f9"/></g><g><path d="m258.033 386.51h-27.825c-4.267 0-7.726-3.459-7.726-7.726s3.459-7.726 7.726-7.726h27.825c4.268 0 7.726 3.459 7.726 7.726.001 4.266-3.458 7.726-7.726 7.726z" fill="#1c96f9"/></g><g><path d="m258.033 420.944h-27.825c-4.267 0-7.726-3.459-7.726-7.726s3.459-7.726 7.726-7.726h27.825c4.268 0 7.726 3.459 7.726 7.726.001 4.266-3.458 7.726-7.726 7.726z" fill="#1c96f9"/></g></g></g></svg>