<svg width="398" height="550" viewBox="0 0 398 550" fill="none" xmlns="http://www.w3.org/2000/svg">
<path d="M39 125H359V538C359 544.627 353.627 550 347 550H51C44.3726 550 39 544.627 39 538V125Z" fill="black"/>
<rect width="398" height="135" rx="12" fill="black"/>
<rect x="50" y="135" width="298" height="404" fill="#FF5733"/>
<rect x="11" y="10" width="377" height="114" rx="4" fill="#FF5733"/>
<rect x="11" y="10" width="377" height="114" rx="4" fill="url(#paint0_linear_7_22)"/>
<rect x="50" y="134" width="298" height="405" rx="4" fill="url(#paint1_linear_7_22)"/>
<rect x="108" y="142" width="48" height="397" fill="white"/>
<rect x="300" y="135" width="48" height="404" fill="white" fill-opacity="0.25"/>
<rect x="96" y="142" width="12" height="397" fill="white" fill-opacity="0.5"/>
<rect x="84" y="10" width="49" height="114" fill="white"/>
<rect x="339" y="10" width="49" height="114" fill="white" fill-opacity="0.25"/>
<rect x="72" y="10" width="12" height="114" fill="white" fill-opacity="0.5"/>
<defs>
<linearGradient id="paint0_linear_7_22" x1="335" y1="67" x2="137" y2="67" gradientUnits="userSpaceOnUse">
<stop stop-color="#D62600"/>
<stop offset="1" stop-color="#FF5733" stop-opacity="0"/>
</linearGradient>
<linearGradient id="paint1_linear_7_22" x1="306.106" y1="336.5" x2="149.597" y2="336.5" gradientUnits="userSpaceOnUse">
<stop stop-color="#D62600"/>
<stop offset="1" stop-color="#FF5733" stop-opacity="0"/>
</linearGradient>
</defs>
</svg>
