<svg width="380" height="320" viewBox="0 0 380 320" fill="none" xmlns="http://www.w3.org/2000/svg">
<path d="M72 320L122.5 231L130.5 150.5L115 73L72 0H312L265 64.5L257 158.5L265 249L312 320H72Z" fill="#FF5733"/>
<path d="M67.027 9.5C72.9909 9.5 79.5196 12.3449 86.3672 19.2588C93.2495 26.2075 99.8845 36.7468 105.66 50.5336C117.194 78.0671 124.554 116.764 124.554 160C124.554 203.236 117.194 241.933 105.66 269.466C99.8845 283.253 93.2495 293.793 86.3672 300.741C79.5196 307.655 72.9909 310.5 67.027 310.5C61.0632 310.5 54.5345 307.655 47.6868 300.741C40.8045 293.793 34.1695 283.253 28.394 269.466C16.8596 241.933 9.5 203.236 9.5 160C9.5 116.764 16.8596 78.0671 28.394 50.5336C34.1695 36.7468 40.8045 26.2075 47.6868 19.2588C54.5345 12.3449 61.0632 9.5 67.027 9.5Z" stroke="#FF5733" stroke-width="19"/>
<path d="M312.027 9.5C317.991 9.5 324.52 12.3449 331.367 19.2588C338.25 26.2075 344.885 36.7468 350.66 50.5336C362.194 78.0671 369.554 116.764 369.554 160C369.554 203.236 362.194 241.933 350.66 269.466C344.885 283.253 338.25 293.793 331.367 300.741C324.52 307.655 317.991 310.5 312.027 310.5C306.063 310.5 299.534 307.655 292.687 300.741C285.805 293.793 279.17 283.253 273.394 269.466C261.86 241.933 254.5 203.236 254.5 160C254.5 116.764 261.86 78.0671 273.394 50.5336C279.17 36.7468 285.805 26.2075 292.687 19.2588C299.534 12.3449 306.063 9.5 312.027 9.5Z" stroke="#FF5733" stroke-width="19"/>
</svg>
